<?xml version="1.0" encoding="UTF-8"?>
<svg version="1.1" xmlns="http://www.w3.org/2000/svg" width="240" height="240">
<path d="M0 0 C79.2 0 158.4 0 240 0 C240 79.2 240 158.4 240 240 C160.8 240 81.6 240 0 240 C0 160.8 0 81.6 0 0 Z " fill="#000000" transform="translate(0,0)"/>
<path d="M0 0 C2.62561109 -0.08074203 5.24875676 -0.1403623 7.875 -0.1875 C8.62136719 -0.21263672 9.36773437 -0.23777344 10.13671875 -0.26367188 C12.3046875 -0.29296875 12.3046875 -0.29296875 16 0 C18.12247556 3.18371334 18.33735235 4.4496862 18.6328125 8.15625 C18.71660156 9.17976563 18.80039063 10.20328125 18.88671875 11.2578125 C18.96535156 12.32773438 19.04398438 13.39765625 19.125 14.5 C19.21136719 15.53898437 19.29773438 16.57796875 19.38671875 17.6484375 C19.92063165 24.44523343 20.10661017 31.18371797 20 38 C20.62487305 38.14099121 21.24974609 38.28198242 21.89355469 38.42724609 C25.55138769 39.42183073 27.90652592 41.90767881 30 45 C30.375 48.875 30.375 48.875 30 52 C30.66 52 31.32 52 32 52 C34.03551543 59.23015081 33.06632798 65.89699758 31 73 C30.34 73 29.68 73 29 73 C28.7525 73.5775 28.505 74.155 28.25 74.75 C26.81700012 77.32939979 25.21575324 79.06121592 23 81 C22.34 81 21.68 81 21 81 C21 81.66 21 82.32 21 83 C17.535 83.495 17.535 83.495 14 84 C14.01087646 85.12398193 14.02175293 86.24796387 14.03295898 87.40600586 C14.12063214 100.94491202 13.72277425 114.44800822 13.20043945 127.97583008 C13.06149877 131.58853369 12.92978873 135.20145232 12.79882812 138.81445312 C12.71136275 141.14845347 12.62348689 143.48243849 12.53515625 145.81640625 C12.49656998 146.8780751 12.4579837 147.93974396 12.41822815 149.03358459 C12.15535226 155.71458009 11.67243575 162.347746 11 169 C9.34385343 169.38218767 7.67542976 169.71395102 6 170 C1.75778999 165.75778999 3.67087949 150.10096914 3.46484375 144.17578125 C3.42186661 142.99010056 3.37888947 141.80441986 3.33460999 140.58280945 C3.24502199 138.08951754 3.15686105 135.59617398 3.07006836 133.1027832 C2.93845609 129.33983559 2.80059406 125.57715335 2.66210938 121.81445312 C2.20907665 109.20488605 1.84729344 96.61808663 2 84 C0.34278931 83.79963135 0.34278931 83.79963135 -1.34790039 83.59521484 C-5.21631634 82.96474502 -6.61450261 82.23338356 -9.4375 79.625 C-10.11683594 79.01914063 -10.79617187 78.41328125 -11.49609375 77.7890625 C-13 76 -13 76 -13 73 C-13.66 73 -14.32 73 -15 73 C-18.38917906 66.78650507 -18.94649126 61.00939279 -18 54 C-15.83879497 47.4147898 -12.31842512 42.39348162 -7 38 C-6.01 38 -5.02 38 -4 38 C-4.01015137 37.42169434 -4.02030273 36.84338867 -4.03076172 36.24755859 C-4.09761923 29.33394627 -3.69544136 22.51286662 -3.125 15.625 C-3.04636719 14.55894531 -2.96773437 13.49289063 -2.88671875 12.39453125 C-2.80292969 11.36972656 -2.71914062 10.34492187 -2.6328125 9.2890625 C-2.55949707 8.36818848 -2.48618164 7.44731445 -2.41064453 6.49853516 C-1.99576616 3.97423955 -1.26880377 2.2054093 0 0 Z " fill="#434447" transform="translate(112,60)"/>
<path d="M0 0 C0.721875 0.00257812 1.44375 0.00515625 2.1875 0.0078125 C2.909375 0.00523438 3.63125 0.00265625 4.375 0 C6.1875 0.1328125 6.1875 0.1328125 7.1875 1.1328125 C8.52702947 10.60490326 8.35042928 20.13494822 8.35546875 29.6796875 C8.35941862 31.51522869 8.36356323 33.35076947 8.3678894 35.18630981 C8.37719912 40.07665651 8.37828065 44.96696864 8.37617874 49.85732269 C8.37499919 52.88488374 8.37553104 55.9124413 8.37619019 58.94000244 C8.37505008 83.31048053 8.22599088 107.65417977 7.25 132.0078125 C7.20652435 133.09557983 7.16304871 134.18334717 7.11825562 135.30407715 C6.70619571 145.27747951 6.15045409 155.1957848 5.1875 165.1328125 C3.53135343 165.51500017 1.86292976 165.84676352 0.1875 166.1328125 C-5.17350626 160.77180624 -2.59765467 136.85703595 -2.875 129.5703125 C-2.91952301 128.40382172 -2.96404602 127.23733093 -3.00991821 126.03549194 C-3.86886442 102.60546771 -4.0060507 79.18180684 -4.00053024 55.73796463 C-4.00000223 52.95705264 -4.00117153 50.17614482 -4.00247192 47.39523315 C-4.00344204 42.96114408 -3.99765354 38.52711101 -3.98632431 34.09303665 C-3.98248824 32.45315441 -3.98001884 30.81326826 -3.97906876 29.17338181 C-3.95156648 0.28955444 -3.95156648 0.28955444 0 0 Z " fill="#E02207" transform="translate(117.8125,63.8671875)"/>
<path d="M0 0 C0.99 0 1.98 0 3 0 C3.13277344 1.05960937 3.26554688 2.11921875 3.40234375 3.2109375 C3.58053875 4.59898279 3.7589346 5.98700231 3.9375 7.375 C4.02451172 8.07367188 4.11152344 8.77234375 4.20117188 9.4921875 C4.66318128 13.36783575 4.66318128 13.36783575 6 17 C6.07033769 18.87379605 6.0843022 20.75001102 6.0625 22.625 C6.05347656 23.62789062 6.04445312 24.63078125 6.03515625 25.6640625 C6.02355469 26.43492188 6.01195312 27.20578125 6 28 C6.88945312 28.16628906 6.88945312 28.16628906 7.796875 28.3359375 C11.48446328 29.44744461 13.86314556 31.84360064 16 35 C16.375 38.875 16.375 38.875 16 42 C16.66 42 17.32 42 18 42 C20.03551543 49.23015081 19.06632798 55.89699758 17 63 C16.34 63 15.68 63 15 63 C14.7525 63.5775 14.505 64.155 14.25 64.75 C12.81700012 67.32939979 11.21575324 69.06121592 9 71 C8.34 71 7.68 71 7 71 C7 71.66 7 72.32 7 73 C3.535 73.495 3.535 73.495 0 74 C0 49.58 0 25.16 0 0 Z " fill="#4E4F53" transform="translate(126,70)"/>
<path d="M0 0 C1.4540625 0.0309375 1.4540625 0.0309375 2.9375 0.0625 C2.9375 0.3925 2.9375 0.7225 2.9375 1.0625 C1.2875 1.3925 -0.3625 1.7225 -2.0625 2.0625 C-2.82486251 18.89935716 -3.17067757 35.70948723 -3.1875 52.5625 C-3.18999756 53.44647461 -3.19249512 54.33044922 -3.19506836 55.24121094 C-3.20095861 57.7754305 -3.19947456 60.3095291 -3.1953125 62.84375 C-3.19729645 63.60095337 -3.1992804 64.35815674 -3.20132446 65.13830566 C-3.18463043 68.93546819 -2.80628098 72.35570625 -2.0625 76.0625 C-1.87401283 77.85972884 -1.71579119 79.66029197 -1.58178711 81.46240234 C-1.50179977 82.52412659 -1.42181244 83.58585083 -1.33940125 84.67974854 C-1.25704727 85.82441589 -1.1746933 86.96908325 -1.08984375 88.1484375 C-1.00229324 89.34660095 -0.91474274 90.5447644 -0.82453918 91.77923584 C-0.54411758 95.66495039 -0.27096677 99.55111519 0 103.4375 C0.09220825 104.74829529 0.1844165 106.05909058 0.27941895 107.40960693 C1.61801793 126.6601746 2.57375186 145.76449178 1.9375 165.0625 C0.2875 164.7325 -1.3625 164.4025 -3.0625 164.0625 C-3.87319727 155.38906982 -4.35274792 146.73775288 -4.6171875 138.03125 C-4.63812344 137.34643051 -4.65905937 136.66161102 -4.68062973 135.95603943 C-5.28739462 115.42814367 -5.21378264 94.88979847 -5.19287109 74.35498047 C-5.1871195 68.6550463 -5.1905049 62.95515869 -5.19644356 57.25522614 C-5.20007978 52.79042213 -5.19889753 48.32562894 -5.19631577 43.86082458 C-5.19565781 41.75923151 -5.19643436 39.65763739 -5.19879532 37.55604553 C-5.20740622 27.76389707 -5.16196844 17.99218571 -4.61669922 8.21289062 C-4.57797762 7.49702538 -4.53925602 6.78116013 -4.49936104 6.04360199 C-4.11871816 0.08405547 -4.11871816 0.08405547 0 0 Z " fill="#ED4A32" transform="translate(120.0625,64.9375)"/>
<path d="M0 0 C0.33 0 0.66 0 1 0 C1 11.55 1 23.1 1 35 C-6.92834225 33.86737968 -6.92834225 33.86737968 -10.4375 30.625 C-11.11683594 30.01914063 -11.79617187 29.41328125 -12.49609375 28.7890625 C-14 27 -14 27 -14 24 C-14.66 24 -15.32 24 -16 24 C-17.57300962 18.26696495 -18.24327778 13.84340558 -17 8 C-16.34 8.33 -15.68 8.66 -15 9 C-14.67 7.35 -14.34 5.7 -14 4 C-7.9453125 3.0234375 -7.9453125 3.0234375 -6 3 C-5.34 3.66 -4.68 4.32 -4 5 C-3.360625 4.175 -2.72125 3.35 -2.0625 2.5 C-1.381875 1.675 -0.70125 0.85 0 0 Z " fill="#4B4C50" transform="translate(113,109)"/>
<path d="M0 0 C2.62561109 -0.08074203 5.24875676 -0.1403623 7.875 -0.1875 C8.99455078 -0.22520508 8.99455078 -0.22520508 10.13671875 -0.26367188 C12.3046875 -0.29296875 12.3046875 -0.29296875 16 0 C18.15749784 3.23624676 18.28360488 4.34394066 18.4140625 8.10546875 C18.45273438 9.08837891 18.49140625 10.07128906 18.53125 11.08398438 C18.5621875 12.10814453 18.593125 13.13230469 18.625 14.1875 C18.66367188 15.22326172 18.70234375 16.25902344 18.7421875 17.32617188 C18.83648296 19.88393622 18.92208202 22.44169287 19 25 C18.67 25 18.34 25 18 25 C17.34 20.38 16.68 15.76 16 11 C15.01 12.32 14.02 13.64 13 15 C12.505 10.05 12.505 10.05 12 5 C9.36 5 6.72 5 4 5 C3.95512451 5.7113208 3.91024902 6.4226416 3.86401367 7.15551758 C3.65281093 10.37563602 3.42041422 13.59388224 3.1875 16.8125 C3.11724609 17.93205078 3.04699219 19.05160156 2.97460938 20.20507812 C2.89404297 21.27822266 2.81347656 22.35136719 2.73046875 23.45703125 C2.66239014 24.44678955 2.59431152 25.43654785 2.52416992 26.45629883 C1.93894218 29.29630249 1.32038392 30.30517638 -1 32 C-1.66 32 -2.32 32 -3 32 C-3 33.98 -3 35.96 -3 38 C-3.33 38 -3.66 38 -4 38 C-4.13170265 30.49712987 -3.74413982 23.10088229 -3.125 15.625 C-3.04636719 14.55894531 -2.96773438 13.49289063 -2.88671875 12.39453125 C-2.80292969 11.36972656 -2.71914062 10.34492187 -2.6328125 9.2890625 C-2.55949707 8.36818848 -2.48618164 7.44731445 -2.41064453 6.49853516 C-1.99576616 3.97423955 -1.26880377 2.2054093 0 0 Z " fill="#3F3D40" transform="translate(112,60)"/>
<path d="M0 0 C0.99 0 1.98 0 3 0 C3.13277344 1.05960937 3.26554688 2.11921875 3.40234375 3.2109375 C3.58053875 4.59898279 3.7589346 5.98700231 3.9375 7.375 C4.02451172 8.07367188 4.11152344 8.77234375 4.20117188 9.4921875 C4.66318128 13.36783575 4.66318128 13.36783575 6 17 C6.07033769 18.87379605 6.0843022 20.75001102 6.0625 22.625 C6.05347656 23.62789062 6.04445312 24.63078125 6.03515625 25.6640625 C6.02355469 26.43492188 6.01195312 27.20578125 6 28 C6.59296875 28.10183594 7.1859375 28.20367187 7.796875 28.30859375 C10.36184111 29.11355652 11.42743483 30.11566902 13.25 32.0625 C13.77078125 32.61035156 14.2915625 33.15820312 14.828125 33.72265625 C15.21484375 34.14417969 15.6015625 34.56570312 16 35 C15.67 35.66 15.34 36.32 15 37 C13.68 36.01 12.36 35.02 11 34 C9.14223235 37.13498292 8.79859524 39.37471432 9 43 C7.515 43.495 7.515 43.495 6 44 C5.01 40.535 5.01 40.535 4 37 C4.495 36.505 4.495 36.505 5 36 C4.34 35.67 3.68 35.34 3 35 C2.34 36.32 1.68 37.64 1 39 C0.67 39 0.34 39 0 39 C0 26.13 0 13.26 0 0 Z " fill="#434447" transform="translate(126,70)"/>
<path d="M0 0 C2.62561109 -0.08074203 5.24875676 -0.1403623 7.875 -0.1875 C8.99455078 -0.22520508 8.99455078 -0.22520508 10.13671875 -0.26367188 C12.3046875 -0.29296875 12.3046875 -0.29296875 16 0 C18.15749784 3.23624676 18.28360488 4.34394066 18.4140625 8.10546875 C18.45273438 9.08837891 18.49140625 10.07128906 18.53125 11.08398438 C18.5621875 12.10814453 18.593125 13.13230469 18.625 14.1875 C18.66367188 15.22326172 18.70234375 16.25902344 18.7421875 17.32617188 C18.83648296 19.88393622 18.92208202 22.44169287 19 25 C18.67 25 18.34 25 18 25 C17.34 20.38 16.68 15.76 16 11 C15.01 12.32 14.02 13.64 13 15 C12.67 11.7 12.34 8.4 12 5 C10.02 4.34 8.04 3.68 6 3 C6 2.67 6 2.34 6 2 C3.58354218 1.83312552 3.58354218 1.83312552 1 2 C0.34 2.66 -0.32 3.32 -1 4 C-0.67 2.68 -0.34 1.36 0 0 Z " fill="#353234" transform="translate(112,60)"/>
<path d="M0 0 C0.33 0 0.66 0 1 0 C1 6.6 1 13.2 1 20 C1.99 19.01 2.98 18.02 4 17 C4.36717663 24.4659249 4.36717663 24.4659249 2.625 27 C1 28 1 28 -1 28 C-1 29.98 -1 31.96 -1 34 C-1.33 34 -1.66 34 -2 34 C-2.15318589 26.4024052 -1.6801662 18.93955113 -1 11.375 C-0.90460938 10.27542969 -0.80921875 9.17585938 -0.7109375 8.04296875 C-0.47777676 5.36162018 -0.2407296 2.68067779 0 0 Z " fill="#343335" transform="translate(110,64)"/>
<path d="M0 0 C1 3 1 3 0 6 C-2.5625 7.1875 -2.5625 7.1875 -5 8 C-3.8141763 4.62496331 -2.72426311 2.35277269 0 0 Z " fill="#373738" transform="translate(102,101)"/>
<path d="M0 0 C0.99 0 1.98 0 3 0 C2.50168276 3.68754757 1.89932357 5.60490662 -1 8 C-1 6.68 -1 5.36 -1 4 C-0.34 4 0.32 4 1 4 C0.67 2.68 0.34 1.36 0 0 Z " fill="#424347" transform="translate(111,77)"/>
</svg>
