<?xml version="1.0" encoding="UTF-8"?>
<svg version="1.1" xmlns="http://www.w3.org/2000/svg" width="240" height="240">
<path d="M0 0 C79.2 0 158.4 0 240 0 C240 79.2 240 158.4 240 240 C160.8 240 81.6 240 0 240 C0 160.8 0 81.6 0 0 Z " fill="#000000" transform="translate(0,0)"/>
<path d="M0 0 C0.721875 0.00257812 1.44375 0.00515625 2.1875 0.0078125 C2.909375 0.00523438 3.63125 0.00265625 4.375 0 C6.1875 0.1328125 6.1875 0.1328125 7.1875 1.1328125 C7.27533542 3.35136514 7.29444609 5.57269746 7.28515625 7.79296875 C7.2837413 8.45743515 7.28232635 9.12190155 7.28086853 9.8065033 C7.27525518 11.93615149 7.26270054 14.06569589 7.25 16.1953125 C7.24498671 17.63606619 7.24042351 19.07682153 7.23632812 20.51757812 C7.22528145 24.05602352 7.20800792 27.59440789 7.1875 31.1328125 C8.13222168 31.27235352 9.07694336 31.41189453 10.05029297 31.55566406 C15.73089274 32.60071759 19.57049648 36.51580898 23.5625 40.5078125 C27.86599489 47.45961194 28.32156607 56.48203501 26.734375 64.390625 C26.28101857 65.99032553 25.74452083 67.56619141 25.1875 69.1328125 C24.5275 69.1328125 23.8675 69.1328125 23.1875 69.1328125 C22.94 69.7103125 22.6925 70.2878125 22.4375 70.8828125 C21.00450012 73.46221229 19.40325324 75.19402842 17.1875 77.1328125 C16.5275 77.1328125 15.8675 77.1328125 15.1875 77.1328125 C14.6925 78.6178125 14.6925 78.6178125 14.1875 80.1328125 C10.7225 80.6278125 10.7225 80.6278125 7.1875 81.1328125 C7.19535522 82.32596069 7.19535522 82.32596069 7.20336914 83.54321289 C7.29943562 100.66371897 7.18270221 117.76710482 6.75 134.8828125 C6.73035187 135.70161896 6.71070374 136.52042542 6.69046021 137.36404419 C6.45537268 146.98498587 6.05384249 156.54458031 5.1875 166.1328125 C3.5375 166.1328125 1.8875 166.1328125 0.1875 166.1328125 C-1.3217435 137.80659294 -2.61825794 109.47398138 -3.8125 81.1328125 C-4.43676376 80.93659805 -5.06102753 80.74038361 -5.70420837 80.53822327 C-6.51974686 80.27561203 -7.33528534 80.01300079 -8.17553711 79.74243164 C-8.98542587 79.48434219 -9.79531464 79.22625275 -10.62974548 78.96034241 C-13.26146564 77.96259982 -14.67852594 76.80811162 -16.375 74.5703125 C-17.08849609 73.67119141 -17.08849609 73.67119141 -17.81640625 72.75390625 C-18.8125 71.1328125 -18.8125 71.1328125 -18.8125 69.1328125 C-19.4725 69.1328125 -20.1325 69.1328125 -20.8125 69.1328125 C-24.20589393 62.9115903 -24.7433462 57.14996077 -23.8125 50.1328125 C-21.30452428 41.9586694 -16.09460866 36.275202 -8.81640625 31.9453125 C-6.8125 31.1328125 -6.8125 31.1328125 -2.8125 31.1328125 C-2.82035522 29.77748413 -2.82035522 29.77748413 -2.82836914 28.39477539 C-2.84537686 25.05329761 -2.85793333 21.71186558 -2.86743164 18.37036133 C-2.87247101 16.92211177 -2.87930253 15.47386733 -2.88793945 14.02563477 C-2.90002247 11.94806662 -2.90573211 9.87056553 -2.91015625 7.79296875 C-2.91539307 6.54136963 -2.92062988 5.28977051 -2.92602539 4.00024414 C-2.77570302 0.20339203 -2.77570302 0.20339203 0 0 Z " fill="#B32816" transform="translate(117.8125,63.8671875)"/>
<path d="M0 0 C0 16.5 0 33 0 50 C-12.25087925 46.32473623 -12.25087925 46.32473623 -16 40 C-16 39.34 -16 38.68 -16 38 C-16.66 38 -17.32 38 -18 38 C-21.39339393 31.7787778 -21.9308462 26.01714827 -21 19 C-18.49202428 10.8258569 -13.28210866 5.1423895 -6.00390625 0.8125 C-4 0 -4 0 0 0 Z " fill="#46474B" transform="translate(115,95)"/>
<path d="M0 0 C7.51106871 1.25184478 11.10640934 4.10640934 16.375 9.375 C20.67849489 16.32679944 21.13406607 25.34922251 19.546875 33.2578125 C19.09351857 34.85751303 18.55702083 36.43337891 18 38 C17.34 38 16.68 38 16 38 C15.7525 38.5775 15.505 39.155 15.25 39.75 C13.81700012 42.32939979 12.21575324 44.06121592 10 46 C9.34 46 8.68 46 8 46 C7.67 46.99 7.34 47.98 7 49 C3.535 49.495 3.535 49.495 0 50 C0 33.5 0 17 0 0 Z " fill="#46474B" transform="translate(125,95)"/>
<path d="M0 0 C1.4540625 0.0309375 1.4540625 0.0309375 2.9375 0.0625 C2.9375 0.3925 2.9375 0.7225 2.9375 1.0625 C1.2875 1.3925 -0.3625 1.7225 -2.0625 2.0625 C-2.08570886 11.72038658 -2.10345859 21.37826349 -2.11431217 31.03617191 C-2.11952233 35.52111359 -2.12658598 40.00603613 -2.13793945 44.4909668 C-2.1488348 48.82221603 -2.1547909 53.1534469 -2.15737724 57.48470879 C-2.15921953 59.13404059 -2.162817 60.78337144 -2.16823006 62.43269539 C-2.17552878 64.74950427 -2.17648723 67.06623804 -2.17602539 69.38305664 C-2.178246 70.6998793 -2.18046661 72.01670197 -2.18275452 73.37342834 C-2.06419442 77.01052006 -1.62455369 80.47032927 -1.0625 84.0625 C-0.8676598 86.75085508 -0.6979349 89.43007546 -0.5625 92.12109375 C-0.52189453 92.8690773 -0.48128906 93.61706085 -0.43945312 94.38771057 C-0.31088311 96.75832831 -0.18622725 99.12912491 -0.0625 101.5 C0.10089038 104.62388361 0.26814893 107.74752829 0.4375 110.87109375 C0.49067383 111.92459267 0.49067383 111.92459267 0.54492188 112.99937439 C0.72781908 116.37236878 1.01600268 119.65201827 1.46264648 123.00610352 C2.04056862 127.39815761 2.06406525 131.73184799 2.03515625 136.15625 C2.0337413 136.98838013 2.03232635 137.82051025 2.03086853 138.67785645 C2.02532167 141.3061093 2.01277945 143.93427338 2 146.5625 C1.99497812 148.35676959 1.99041642 150.15104054 1.98632812 151.9453125 C1.97536972 156.31774195 1.95814248 160.69010598 1.9375 165.0625 C0.6175 165.0625 -0.7025 165.0625 -2.0625 165.0625 C-4.36092932 132.60565672 -4.34263185 100.15471667 -4.26309502 67.63723922 C-4.24957811 61.82670205 -4.24740208 56.01620216 -4.2480461 50.2056514 C-4.24871888 43.18433153 -4.24182817 36.16303429 -4.2325995 29.14172125 C-4.23047253 27.13637169 -4.22975912 25.13102578 -4.22936058 23.1256752 C-4.22720941 19.42766523 -4.21850125 15.72973194 -4.20776367 12.03173828 C-4.20821686 10.92776199 -4.20867004 9.82378571 -4.20913696 8.68635559 C-4.20487198 7.68957291 -4.20060699 6.69279022 -4.19621277 5.665802 C-4.19453692 4.79558474 -4.19286108 3.92536747 -4.19113445 3.02877998 C-3.9761305 -0.25772655 -3.3613013 0.06859799 0 0 Z " fill="#CB5948" transform="translate(120.0625,64.9375)"/>
<path d="M0 0 C0 4.95 0 9.9 0 15 C-7 16 -7 16 -10 15 C-10 14.01 -10 13.02 -10 12 C-10.144375 12.78375 -10.28875 13.5675 -10.4375 14.375 C-11 17 -11 17 -12 19 C-13.98 18.01 -15.96 17.02 -18 16 C-18.66 20.95 -19.32 25.9 -20 31 C-20.33 31 -20.66 31 -21 31 C-21.65705277 22.50211746 -21.07281056 16.04354272 -16 9 C-11.35701098 4.0444137 -6.99571169 0 0 0 Z " fill="#3E3F42" transform="translate(115,95)"/>
<path d="M0 0 C0.99 0.33 1.98 0.66 3 1 C3 6.28 3 11.56 3 17 C-7.3125 14.32142857 -7.3125 14.32142857 -10 10 C-9.34 8.68 -8.68 7.36 -8 6 C-6.68 6 -5.36 6 -4 6 C-1.71760829 3.07678035 -1.71760829 3.07678035 0 0 Z " fill="#4D4E51" transform="translate(112,128)"/>
<path d="M0 0 C-0.8125 1.9375 -0.8125 1.9375 -2 4 C-2.99 4.33 -3.98 4.66 -5 5 C-5.33 5.66 -5.66 6.32 -6 7 C-6.66 7 -7.32 7 -8 7 C-7.67 10.63 -7.34 14.26 -7 18 C-9.31 17.01 -11.62 16.02 -14 15 C-14.66 19.95 -15.32 24.9 -16 30 C-16.33 30 -16.66 30 -17 30 C-17.6564434 21.50999867 -17.08061614 15.03283379 -12 8 C-4.3649635 0 -4.3649635 0 0 0 Z " fill="#343437" transform="translate(111,96)"/>
<path d="M0 0 C2.97 0.495 2.97 0.495 6 1 C6 2.32 6 3.64 6 5 C3.83125748 4.49396008 2.00032373 4.00016187 0 3 C0 2.01 0 1.02 0 0 Z " fill="#545559" transform="translate(125,138)"/>
<path d="M0 0 C-0.625 1.9375 -0.625 1.9375 -2 4 C-5.125 4.75 -5.125 4.75 -8 5 C-3.16129032 0 -3.16129032 0 0 0 Z " fill="#313032" transform="translate(111,96)"/>
</svg>
