<?xml version="1.0" encoding="UTF-8"?>
<svg version="1.1" xmlns="http://www.w3.org/2000/svg" width="240" height="240">
<path d="M0 0 C79.2 0 158.4 0 240 0 C240 79.2 240 158.4 240 240 C160.8 240 81.6 240 0 240 C0 160.8 0 81.6 0 0 Z " fill="#000000" transform="translate(0,0)"/>
<path d="M0 0 C3 0.125 3 0.125 4 1.125 C4.15858842 3.26886657 4.25129298 5.41766838 4.31640625 7.56640625 C4.35830078 8.87158203 4.40019531 10.17675781 4.44335938 11.52148438 C4.48317608 12.9101533 4.52288825 14.29882522 4.5625 15.6875 C4.60567989 17.08009183 4.649294 18.47267028 4.69335938 19.86523438 C4.79985876 23.28504801 4.90186923 26.70493763 5 30.125 C5.6177832 30.32198486 6.23556641 30.51896973 6.87207031 30.72192383 C7.68256836 30.98513428 8.49306641 31.24834473 9.328125 31.51953125 C10.1315332 31.77839111 10.93494141 32.03725098 11.76269531 32.30395508 C17.98243194 34.58647082 21.00699593 39.51887314 24 45.125 C26.1874496 51.6873488 26.3169964 60.36351968 23.3125 66.6875 C19.99603815 72.14511616 15.48529274 75.9252459 10 79.125 C7.525 79.62 7.525 79.62 5 80.125 C4.34 107.845 3.68 135.565 3 164.125 C1.35 164.455 -0.3 164.785 -2 165.125 C-3.09200211 161.84899368 -3.20654275 159.27904608 -3.31640625 155.828125 C-3.33723267 155.18243057 -3.35805908 154.53673615 -3.3795166 153.87147522 C-3.44644662 151.70611371 -3.50507824 149.54063342 -3.5625 147.375 C-3.58367889 146.62954926 -3.60485779 145.88409851 -3.62667847 145.11605835 C-4.23008053 123.4578366 -4.09145775 101.7892296 -4 80.125 C-4.94093506 79.98328369 -5.88187012 79.84156738 -6.85131836 79.69555664 C-12.45836269 78.67953256 -17.10391226 75.50071278 -20.65234375 71.0546875 C-25.38576357 63.61841636 -25.69661508 56.85203893 -25 48.125 C-22.77389435 40.30943343 -16.90800856 35.07243346 -10 31.125 C-8.00839349 30.74471773 -6.00825687 30.4043125 -4 30.125 C-4.00523682 29.25174072 -4.01047363 28.37848145 -4.01586914 27.47875977 C-4.03287751 24.24910727 -4.04543369 21.01947755 -4.05493164 17.78979492 C-4.0599708 16.39004772 -4.06680216 14.9903058 -4.07543945 13.59057617 C-4.0875232 11.58254223 -4.09269807 9.57447043 -4.09765625 7.56640625 C-4.10289307 6.35670166 -4.10812988 5.14699707 -4.11352539 3.90063477 C-3.95557901 0.0389306 -3.89240774 0.16218366 0 0 Z " fill="#E8F2FB" transform="translate(120,64.875)"/>
<path d="M0 0 C0 15.84 0 31.68 0 48 C-7.34039747 46.95137179 -11.0765539 45.86527797 -15.515625 39.99609375 C-20.32945779 32.48485465 -20.70710376 25.85843872 -20 17 C-17.42835106 7.97127599 -9.50806837 0 0 0 Z " fill="#F7FBFE" transform="translate(115,96)"/>
<path d="M0 0 C0.66 0.33 1.32 0.66 2 1 C-0.97 3.97 -3.94 6.94 -7 10 C-7 7 -7 7 -4.625 4.4375 C-3.75875 3.633125 -2.8925 2.82875 -2 2 C-1.34 1.34 -0.68 0.68 0 0 Z " fill="#A8D5FE" transform="translate(106,98)"/>
</svg>
